%TF.GenerationSoftware,KiCad,Pcbnew,(6.0.6-1)-1*%
%TF.CreationDate,2023-01-18T10:03:02-08:00*%
%TF.ProjectId,Headlights,48656164-6c69-4676-9874-732e6b696361,rev?*%
%TF.SameCoordinates,Original*%
%TF.FileFunction,Soldermask,Top*%
%TF.FilePolarity,Negative*%
%FSLAX46Y46*%
G04 Gerber Fmt 4.6, Leading zero omitted, Abs format (unit mm)*
G04 Created by KiCad (PCBNEW (6.0.6-1)-1) date 2023-01-18 10:03:02*
%MOMM*%
%LPD*%
G01*
G04 APERTURE LIST*
%ADD10R,1.220000X0.660000*%
%ADD11R,1.800000X3.220000*%
G04 APERTURE END LIST*
D10*
%TO.C,D9*%
X181250000Y-79340000D03*
D11*
X181540000Y-81280000D03*
D10*
X181250000Y-83220000D03*
X179430000Y-83220000D03*
D11*
X179140000Y-81280000D03*
D10*
X179430000Y-79340000D03*
%TD*%
%TO.C,D4*%
X92350000Y-83220000D03*
D11*
X92640000Y-81280000D03*
D10*
X92350000Y-79340000D03*
D11*
X90240000Y-81280000D03*
D10*
X90530000Y-83220000D03*
X90530000Y-79340000D03*
%TD*%
D11*
%TO.C,D10*%
X199320000Y-81280000D03*
D10*
X199030000Y-79340000D03*
X199030000Y-83220000D03*
D11*
X196920000Y-81280000D03*
D10*
X197210000Y-79340000D03*
X197210000Y-83220000D03*
%TD*%
D11*
%TO.C,D2*%
X57080000Y-81280000D03*
D10*
X56790000Y-79340000D03*
X56790000Y-83220000D03*
X54970000Y-79340000D03*
D11*
X54680000Y-81280000D03*
D10*
X54970000Y-83220000D03*
%TD*%
D11*
%TO.C,D7*%
X145980000Y-81280000D03*
D10*
X145690000Y-83220000D03*
X145690000Y-79340000D03*
X143870000Y-79340000D03*
D11*
X143580000Y-81280000D03*
D10*
X143870000Y-83220000D03*
%TD*%
%TO.C,D5*%
X110130000Y-83220000D03*
D11*
X110420000Y-81280000D03*
D10*
X110130000Y-79340000D03*
X108310000Y-83220000D03*
X108310000Y-79340000D03*
D11*
X108020000Y-81280000D03*
%TD*%
%TO.C,D8*%
X163760000Y-81280000D03*
D10*
X163470000Y-83220000D03*
X163470000Y-79340000D03*
X161650000Y-79340000D03*
D11*
X161360000Y-81280000D03*
D10*
X161650000Y-83220000D03*
%TD*%
%TO.C,D3*%
X74570000Y-83220000D03*
X74570000Y-79340000D03*
D11*
X74860000Y-81280000D03*
X72460000Y-81280000D03*
D10*
X72750000Y-79340000D03*
X72750000Y-83220000D03*
%TD*%
D11*
%TO.C,D6*%
X128200000Y-81280000D03*
D10*
X127910000Y-79340000D03*
X127910000Y-83220000D03*
X126090000Y-79340000D03*
D11*
X125800000Y-81280000D03*
D10*
X126090000Y-83220000D03*
%TD*%
M02*
