%TF.GenerationSoftware,KiCad,Pcbnew,(6.0.6-1)-1*%
%TF.CreationDate,2023-01-18T10:03:01-08:00*%
%TF.ProjectId,Headlights,48656164-6c69-4676-9874-732e6b696361,rev?*%
%TF.SameCoordinates,Original*%
%TF.FileFunction,Copper,L2,Inr*%
%TF.FilePolarity,Positive*%
%FSLAX46Y46*%
G04 Gerber Fmt 4.6, Leading zero omitted, Abs format (unit mm)*
G04 Created by KiCad (PCBNEW (6.0.6-1)-1) date 2023-01-18 10:03:01*
%MOMM*%
%LPD*%
G01*
G04 APERTURE LIST*
%TA.AperFunction,ViaPad*%
%ADD10C,0.450000*%
%TD*%
G04 APERTURE END LIST*
D10*
%TO.N,GNDREF*%
X189992000Y-78994000D03*
X198628000Y-84328000D03*
X191008000Y-84836000D03*
X198628000Y-78232000D03*
X197612000Y-78232000D03*
X160528000Y-78994000D03*
X197612000Y-84328000D03*
%TO.N,VS*%
X54864000Y-80264000D03*
X55372000Y-78232000D03*
X56388000Y-78232000D03*
X155702000Y-78486000D03*
X55372000Y-84328000D03*
X54864000Y-82296000D03*
X56388000Y-84328000D03*
%TO.N,Net-(Q2-Pad2)*%
X191008000Y-83566000D03*
X192532000Y-84836000D03*
X192532000Y-77724000D03*
X191008000Y-78994000D03*
X201168000Y-82550000D03*
X201168000Y-80010000D03*
X201168000Y-81280000D03*
%TO.N,/PWM*%
X166624000Y-77978000D03*
X153162000Y-78740000D03*
%TO.N,Net-(Q1-Pad2)*%
X183890000Y-79000000D03*
X170434000Y-78740000D03*
%TD*%
%TA.AperFunction,Conductor*%
%TO.N,GNDREF*%
G36*
X192129164Y-77236502D02*
G01*
X192175657Y-77290158D01*
X192185761Y-77360432D01*
X192155485Y-77425906D01*
X192127109Y-77458036D01*
X192068736Y-77582366D01*
X192064576Y-77609087D01*
X192048986Y-77709209D01*
X192048986Y-77709213D01*
X192047605Y-77718082D01*
X192048769Y-77726984D01*
X192048769Y-77726987D01*
X192050554Y-77740633D01*
X192065414Y-77854273D01*
X192120732Y-77979992D01*
X192209111Y-78085132D01*
X192323447Y-78161240D01*
X192454549Y-78202199D01*
X192591876Y-78204716D01*
X192601109Y-78202199D01*
X192715727Y-78170951D01*
X192724391Y-78168589D01*
X192841439Y-78096721D01*
X192933612Y-77994890D01*
X192944135Y-77973172D01*
X192989585Y-77879362D01*
X192989585Y-77879361D01*
X192993499Y-77871283D01*
X193016286Y-77735836D01*
X193016431Y-77724000D01*
X193015584Y-77718082D01*
X192998232Y-77596923D01*
X192998232Y-77596921D01*
X192996959Y-77588036D01*
X192940110Y-77463003D01*
X192907147Y-77424747D01*
X192877833Y-77360086D01*
X192888132Y-77289840D01*
X192934773Y-77236314D01*
X193002600Y-77216500D01*
X202819500Y-77216500D01*
X202887621Y-77236502D01*
X202934114Y-77290158D01*
X202945500Y-77342500D01*
X202945500Y-85217500D01*
X202925498Y-85285621D01*
X202871842Y-85332114D01*
X202819500Y-85343500D01*
X193003443Y-85343500D01*
X192935322Y-85323498D01*
X192888829Y-85269842D01*
X192878725Y-85199568D01*
X192910027Y-85132946D01*
X192933612Y-85106890D01*
X192993499Y-84983283D01*
X193016286Y-84847836D01*
X193016431Y-84836000D01*
X193015584Y-84830082D01*
X192998232Y-84708923D01*
X192998232Y-84708921D01*
X192996959Y-84700036D01*
X192940110Y-84575003D01*
X192850453Y-84470951D01*
X192735196Y-84396244D01*
X192603603Y-84356890D01*
X192594627Y-84356835D01*
X192594626Y-84356835D01*
X192537080Y-84356484D01*
X192466255Y-84356051D01*
X192334192Y-84393795D01*
X192326605Y-84398582D01*
X192326603Y-84398583D01*
X192264850Y-84437546D01*
X192218031Y-84467087D01*
X192127109Y-84570036D01*
X192068736Y-84694366D01*
X192059027Y-84756724D01*
X192048986Y-84821209D01*
X192048986Y-84821213D01*
X192047605Y-84830082D01*
X192048769Y-84838984D01*
X192048769Y-84838987D01*
X192050554Y-84852633D01*
X192065414Y-84966273D01*
X192120732Y-85091992D01*
X192158083Y-85136427D01*
X192186603Y-85201440D01*
X192175447Y-85271555D01*
X192128155Y-85324507D01*
X192061631Y-85343500D01*
X159892000Y-85343500D01*
X159823879Y-85323498D01*
X159777386Y-85269842D01*
X159766000Y-85217500D01*
X159766000Y-83560082D01*
X190523605Y-83560082D01*
X190524769Y-83568984D01*
X190524769Y-83568987D01*
X190526554Y-83582633D01*
X190541414Y-83696273D01*
X190596732Y-83821992D01*
X190685111Y-83927132D01*
X190799447Y-84003240D01*
X190930549Y-84044199D01*
X191067876Y-84046716D01*
X191077109Y-84044199D01*
X191191727Y-84012951D01*
X191200391Y-84010589D01*
X191317439Y-83938721D01*
X191409612Y-83836890D01*
X191469499Y-83713283D01*
X191492286Y-83577836D01*
X191492431Y-83566000D01*
X191491584Y-83560082D01*
X191474232Y-83438923D01*
X191474232Y-83438921D01*
X191472959Y-83430036D01*
X191416110Y-83305003D01*
X191326453Y-83200951D01*
X191211196Y-83126244D01*
X191079603Y-83086890D01*
X191070627Y-83086835D01*
X191070626Y-83086835D01*
X191013080Y-83086484D01*
X190942255Y-83086051D01*
X190810192Y-83123795D01*
X190802605Y-83128582D01*
X190802603Y-83128583D01*
X190740850Y-83167546D01*
X190694031Y-83197087D01*
X190603109Y-83300036D01*
X190544736Y-83424366D01*
X190535027Y-83486724D01*
X190524986Y-83551209D01*
X190524986Y-83551213D01*
X190523605Y-83560082D01*
X159766000Y-83560082D01*
X159766000Y-82544082D01*
X200683605Y-82544082D01*
X200684769Y-82552984D01*
X200684769Y-82552987D01*
X200686554Y-82566633D01*
X200701414Y-82680273D01*
X200756732Y-82805992D01*
X200845111Y-82911132D01*
X200959447Y-82987240D01*
X201090549Y-83028199D01*
X201227876Y-83030716D01*
X201237109Y-83028199D01*
X201351727Y-82996951D01*
X201360391Y-82994589D01*
X201477439Y-82922721D01*
X201569612Y-82820890D01*
X201629499Y-82697283D01*
X201652286Y-82561836D01*
X201652431Y-82550000D01*
X201651584Y-82544082D01*
X201634232Y-82422923D01*
X201634232Y-82422921D01*
X201632959Y-82414036D01*
X201576110Y-82289003D01*
X201486453Y-82184951D01*
X201371196Y-82110244D01*
X201239603Y-82070890D01*
X201230627Y-82070835D01*
X201230626Y-82070835D01*
X201173080Y-82070484D01*
X201102255Y-82070051D01*
X200970192Y-82107795D01*
X200962605Y-82112582D01*
X200962603Y-82112583D01*
X200900850Y-82151546D01*
X200854031Y-82181087D01*
X200763109Y-82284036D01*
X200704736Y-82408366D01*
X200695027Y-82470724D01*
X200684986Y-82535209D01*
X200684986Y-82535213D01*
X200683605Y-82544082D01*
X159766000Y-82544082D01*
X159766000Y-81274082D01*
X200683605Y-81274082D01*
X200684769Y-81282984D01*
X200684769Y-81282987D01*
X200686554Y-81296633D01*
X200701414Y-81410273D01*
X200756732Y-81535992D01*
X200845111Y-81641132D01*
X200959447Y-81717240D01*
X201090549Y-81758199D01*
X201227876Y-81760716D01*
X201237109Y-81758199D01*
X201351727Y-81726951D01*
X201360391Y-81724589D01*
X201477439Y-81652721D01*
X201569612Y-81550890D01*
X201629499Y-81427283D01*
X201652286Y-81291836D01*
X201652431Y-81280000D01*
X201651584Y-81274082D01*
X201634232Y-81152923D01*
X201634232Y-81152921D01*
X201632959Y-81144036D01*
X201576110Y-81019003D01*
X201486453Y-80914951D01*
X201371196Y-80840244D01*
X201239603Y-80800890D01*
X201230627Y-80800835D01*
X201230626Y-80800835D01*
X201173080Y-80800484D01*
X201102255Y-80800051D01*
X200970192Y-80837795D01*
X200962605Y-80842582D01*
X200962603Y-80842583D01*
X200900850Y-80881546D01*
X200854031Y-80911087D01*
X200763109Y-81014036D01*
X200704736Y-81138366D01*
X200695027Y-81200724D01*
X200684986Y-81265209D01*
X200684986Y-81265213D01*
X200683605Y-81274082D01*
X159766000Y-81274082D01*
X159766000Y-80004082D01*
X200683605Y-80004082D01*
X200684769Y-80012984D01*
X200684769Y-80012987D01*
X200686554Y-80026633D01*
X200701414Y-80140273D01*
X200756732Y-80265992D01*
X200845111Y-80371132D01*
X200959447Y-80447240D01*
X201090549Y-80488199D01*
X201227876Y-80490716D01*
X201237109Y-80488199D01*
X201351727Y-80456951D01*
X201360391Y-80454589D01*
X201477439Y-80382721D01*
X201569612Y-80280890D01*
X201629499Y-80157283D01*
X201652286Y-80021836D01*
X201652431Y-80010000D01*
X201651584Y-80004082D01*
X201634232Y-79882923D01*
X201634232Y-79882921D01*
X201632959Y-79874036D01*
X201576110Y-79749003D01*
X201486453Y-79644951D01*
X201371196Y-79570244D01*
X201239603Y-79530890D01*
X201230627Y-79530835D01*
X201230626Y-79530835D01*
X201173080Y-79530484D01*
X201102255Y-79530051D01*
X200970192Y-79567795D01*
X200962605Y-79572582D01*
X200962603Y-79572583D01*
X200900850Y-79611546D01*
X200854031Y-79641087D01*
X200763109Y-79744036D01*
X200704736Y-79868366D01*
X200695027Y-79930724D01*
X200684986Y-79995209D01*
X200684986Y-79995213D01*
X200683605Y-80004082D01*
X159766000Y-80004082D01*
X159766000Y-78734082D01*
X169949605Y-78734082D01*
X169950769Y-78742984D01*
X169950769Y-78742987D01*
X169952554Y-78756633D01*
X169967414Y-78870273D01*
X170022732Y-78995992D01*
X170028510Y-79002865D01*
X170028510Y-79002866D01*
X170031007Y-79005836D01*
X170111111Y-79101132D01*
X170225447Y-79177240D01*
X170356549Y-79218199D01*
X170493876Y-79220716D01*
X170503109Y-79218199D01*
X170617727Y-79186951D01*
X170626391Y-79184589D01*
X170743439Y-79112721D01*
X170835612Y-79010890D01*
X170843228Y-78995172D01*
X170843756Y-78994082D01*
X183405605Y-78994082D01*
X183406769Y-79002984D01*
X183406769Y-79002987D01*
X183414510Y-79062178D01*
X183423414Y-79130273D01*
X183478732Y-79255992D01*
X183484510Y-79262865D01*
X183484510Y-79262866D01*
X183561331Y-79354256D01*
X183567111Y-79361132D01*
X183681447Y-79437240D01*
X183777630Y-79467290D01*
X183801401Y-79474716D01*
X183812549Y-79478199D01*
X183949876Y-79480716D01*
X183959109Y-79478199D01*
X184073727Y-79446951D01*
X184082391Y-79444589D01*
X184199439Y-79372721D01*
X184291612Y-79270890D01*
X184317066Y-79218354D01*
X184347585Y-79155362D01*
X184347585Y-79155361D01*
X184351499Y-79147283D01*
X184374286Y-79011836D01*
X184374431Y-79000000D01*
X184373584Y-78994082D01*
X184372725Y-78988082D01*
X190523605Y-78988082D01*
X190524769Y-78996984D01*
X190524769Y-78996987D01*
X190526075Y-79006973D01*
X190541414Y-79124273D01*
X190596732Y-79249992D01*
X190602510Y-79256865D01*
X190602510Y-79256866D01*
X190614853Y-79271550D01*
X190685111Y-79355132D01*
X190799447Y-79431240D01*
X190930549Y-79472199D01*
X191067876Y-79474716D01*
X191077109Y-79472199D01*
X191191727Y-79440951D01*
X191200391Y-79438589D01*
X191317439Y-79366721D01*
X191409612Y-79264890D01*
X191432159Y-79218354D01*
X191465585Y-79149362D01*
X191465585Y-79149361D01*
X191469499Y-79141283D01*
X191492286Y-79005836D01*
X191492358Y-79000000D01*
X191492371Y-78998871D01*
X191492431Y-78994000D01*
X191491584Y-78988082D01*
X191474232Y-78866923D01*
X191474232Y-78866921D01*
X191472959Y-78858036D01*
X191416110Y-78733003D01*
X191326453Y-78628951D01*
X191211196Y-78554244D01*
X191079603Y-78514890D01*
X191070627Y-78514835D01*
X191070626Y-78514835D01*
X191013080Y-78514484D01*
X190942255Y-78514051D01*
X190810192Y-78551795D01*
X190802605Y-78556582D01*
X190802603Y-78556583D01*
X190796801Y-78560244D01*
X190694031Y-78625087D01*
X190603109Y-78728036D01*
X190599295Y-78736159D01*
X190599294Y-78736161D01*
X190571136Y-78796136D01*
X190544736Y-78852366D01*
X190538042Y-78895362D01*
X190524986Y-78979209D01*
X190524986Y-78979213D01*
X190523605Y-78988082D01*
X184372725Y-78988082D01*
X184356232Y-78872923D01*
X184356232Y-78872921D01*
X184354959Y-78864036D01*
X184298110Y-78739003D01*
X184208453Y-78634951D01*
X184093196Y-78560244D01*
X183961603Y-78520890D01*
X183952627Y-78520835D01*
X183952626Y-78520835D01*
X183895080Y-78520484D01*
X183824255Y-78520051D01*
X183692192Y-78557795D01*
X183684605Y-78562582D01*
X183684603Y-78562583D01*
X183640765Y-78590243D01*
X183576031Y-78631087D01*
X183485109Y-78734036D01*
X183481295Y-78742159D01*
X183481294Y-78742161D01*
X183453136Y-78802136D01*
X183426736Y-78858366D01*
X183422234Y-78887283D01*
X183406986Y-78985209D01*
X183406986Y-78985213D01*
X183405605Y-78994082D01*
X170843756Y-78994082D01*
X170891585Y-78895362D01*
X170891585Y-78895361D01*
X170895499Y-78887283D01*
X170918286Y-78751836D01*
X170918431Y-78740000D01*
X170917584Y-78734082D01*
X170900232Y-78612923D01*
X170900232Y-78612921D01*
X170898959Y-78604036D01*
X170842110Y-78479003D01*
X170752453Y-78374951D01*
X170637196Y-78300244D01*
X170505603Y-78260890D01*
X170496627Y-78260835D01*
X170496626Y-78260835D01*
X170439080Y-78260484D01*
X170368255Y-78260051D01*
X170236192Y-78297795D01*
X170228605Y-78302582D01*
X170228603Y-78302583D01*
X170170677Y-78339132D01*
X170120031Y-78371087D01*
X170029109Y-78474036D01*
X169970736Y-78598366D01*
X169965528Y-78631816D01*
X169950986Y-78725209D01*
X169950986Y-78725213D01*
X169949605Y-78734082D01*
X159766000Y-78734082D01*
X159766000Y-77972082D01*
X166139605Y-77972082D01*
X166140769Y-77980984D01*
X166140769Y-77980987D01*
X166142554Y-77994633D01*
X166157414Y-78108273D01*
X166212732Y-78233992D01*
X166301111Y-78339132D01*
X166415447Y-78415240D01*
X166546549Y-78456199D01*
X166683876Y-78458716D01*
X166693109Y-78456199D01*
X166807727Y-78424951D01*
X166816391Y-78422589D01*
X166933439Y-78350721D01*
X166974711Y-78305125D01*
X167019584Y-78255550D01*
X167019585Y-78255549D01*
X167025612Y-78248890D01*
X167048159Y-78202354D01*
X167081585Y-78133362D01*
X167081585Y-78133361D01*
X167085499Y-78125283D01*
X167108286Y-77989836D01*
X167108431Y-77978000D01*
X167107584Y-77972082D01*
X167090232Y-77850923D01*
X167090232Y-77850921D01*
X167088959Y-77842036D01*
X167032110Y-77717003D01*
X166942453Y-77612951D01*
X166827196Y-77538244D01*
X166695603Y-77498890D01*
X166686627Y-77498835D01*
X166686626Y-77498835D01*
X166629080Y-77498484D01*
X166558255Y-77498051D01*
X166426192Y-77535795D01*
X166418605Y-77540582D01*
X166418603Y-77540583D01*
X166365255Y-77574243D01*
X166310031Y-77609087D01*
X166219109Y-77712036D01*
X166215295Y-77720159D01*
X166215294Y-77720161D01*
X166187136Y-77780136D01*
X166160736Y-77836366D01*
X166154042Y-77879362D01*
X166140986Y-77963209D01*
X166140986Y-77963213D01*
X166139605Y-77972082D01*
X159766000Y-77972082D01*
X159766000Y-77342500D01*
X159786002Y-77274379D01*
X159839658Y-77227886D01*
X159892000Y-77216500D01*
X192061043Y-77216500D01*
X192129164Y-77236502D01*
G37*
%TD.AperFunction*%
%TD*%
M02*
