%TF.GenerationSoftware,KiCad,Pcbnew,(6.0.6-1)-1*%
%TF.CreationDate,2023-01-18T10:03:02-08:00*%
%TF.ProjectId,Headlights,48656164-6c69-4676-9874-732e6b696361,rev?*%
%TF.SameCoordinates,Original*%
%TF.FileFunction,Copper,L4,Bot*%
%TF.FilePolarity,Positive*%
%FSLAX46Y46*%
G04 Gerber Fmt 4.6, Leading zero omitted, Abs format (unit mm)*
G04 Created by KiCad (PCBNEW (6.0.6-1)-1) date 2023-01-18 10:03:02*
%MOMM*%
%LPD*%
G01*
G04 APERTURE LIST*
G04 Aperture macros list*
%AMRoundRect*
0 Rectangle with rounded corners*
0 $1 Rounding radius*
0 $2 $3 $4 $5 $6 $7 $8 $9 X,Y pos of 4 corners*
0 Add a 4 corners polygon primitive as box body*
4,1,4,$2,$3,$4,$5,$6,$7,$8,$9,$2,$3,0*
0 Add four circle primitives for the rounded corners*
1,1,$1+$1,$2,$3*
1,1,$1+$1,$4,$5*
1,1,$1+$1,$6,$7*
1,1,$1+$1,$8,$9*
0 Add four rect primitives between the rounded corners*
20,1,$1+$1,$2,$3,$4,$5,0*
20,1,$1+$1,$4,$5,$6,$7,0*
20,1,$1+$1,$6,$7,$8,$9,0*
20,1,$1+$1,$8,$9,$2,$3,0*%
G04 Aperture macros list end*
%TA.AperFunction,SMDPad,CuDef*%
%ADD10RoundRect,0.150000X0.587500X0.150000X-0.587500X0.150000X-0.587500X-0.150000X0.587500X-0.150000X0*%
%TD*%
%TA.AperFunction,SMDPad,CuDef*%
%ADD11R,2.200000X1.200000*%
%TD*%
%TA.AperFunction,SMDPad,CuDef*%
%ADD12R,6.400000X5.800000*%
%TD*%
%TA.AperFunction,SMDPad,CuDef*%
%ADD13RoundRect,0.250000X-0.312500X-1.075000X0.312500X-1.075000X0.312500X1.075000X-0.312500X1.075000X0*%
%TD*%
%TA.AperFunction,SMDPad,CuDef*%
%ADD14RoundRect,0.200000X-0.200000X-0.275000X0.200000X-0.275000X0.200000X0.275000X-0.200000X0.275000X0*%
%TD*%
%TA.AperFunction,ViaPad*%
%ADD15C,0.450000*%
%TD*%
%TA.AperFunction,Conductor*%
%ADD16C,0.254000*%
%TD*%
%TA.AperFunction,Conductor*%
%ADD17C,0.250000*%
%TD*%
G04 APERTURE END LIST*
D10*
%TO.P,Q1,1,G*%
%TO.N,/PWM*%
X168577500Y-78298000D03*
%TO.P,Q1,2,S*%
%TO.N,Net-(Q1-Pad2)*%
X168577500Y-80198000D03*
%TO.P,Q1,3,D*%
%TO.N,Net-(D1-Pad1)*%
X166702500Y-79248000D03*
%TD*%
D11*
%TO.P,Q2,1,B*%
%TO.N,Net-(Q1-Pad2)*%
X182000000Y-79000000D03*
D12*
%TO.P,Q2,2,C*%
%TO.N,Net-(Q2-Pad2)*%
X175700000Y-81280000D03*
D11*
%TO.P,Q2,3,E*%
%TO.N,Net-(Q2-Pad3)*%
X182000000Y-83560000D03*
%TD*%
D13*
%TO.P,R3,1*%
%TO.N,Net-(Q2-Pad3)*%
X186497500Y-83566000D03*
%TO.P,R3,2*%
%TO.N,GNDREF*%
X189422500Y-83566000D03*
%TD*%
D14*
%TO.P,R1,1*%
%TO.N,VS*%
X156909000Y-78486000D03*
%TO.P,R1,2*%
%TO.N,Net-(D1-Pad1)*%
X158559000Y-78486000D03*
%TD*%
%TO.P,R2,1*%
%TO.N,Net-(Q1-Pad2)*%
X187135000Y-78994000D03*
%TO.P,R2,2*%
%TO.N,GNDREF*%
X188785000Y-78994000D03*
%TD*%
D10*
%TO.P,D1,1,K*%
%TO.N,Net-(D1-Pad1)*%
X164513500Y-78298000D03*
%TO.P,D1,2,A*%
%TO.N,GNDREF*%
X164513500Y-80198000D03*
%TO.P,D1,3*%
%TO.N,N/C*%
X162638500Y-79248000D03*
%TD*%
D15*
%TO.N,GNDREF*%
X189992000Y-78994000D03*
X198628000Y-84328000D03*
X191008000Y-84836000D03*
X198628000Y-78232000D03*
X197612000Y-78232000D03*
X160528000Y-78994000D03*
X197612000Y-84328000D03*
%TO.N,VS*%
X54864000Y-80264000D03*
X55372000Y-78232000D03*
X56388000Y-78232000D03*
X155702000Y-78486000D03*
X55372000Y-84328000D03*
X54864000Y-82296000D03*
X56388000Y-84328000D03*
%TO.N,Net-(Q2-Pad2)*%
X191008000Y-83566000D03*
X192532000Y-84836000D03*
X192532000Y-77724000D03*
X191008000Y-78994000D03*
X201168000Y-82550000D03*
X201168000Y-80010000D03*
X201168000Y-81280000D03*
%TO.N,/PWM*%
X166624000Y-77978000D03*
X153162000Y-78740000D03*
%TO.N,Net-(Q1-Pad2)*%
X183890000Y-79000000D03*
X170434000Y-78740000D03*
%TD*%
D16*
%TO.N,Net-(D1-Pad1)*%
X165166000Y-78298000D02*
X166116000Y-79248000D01*
X158747000Y-78298000D02*
X158559000Y-78486000D01*
X166116000Y-79248000D02*
X166702500Y-79248000D01*
X164513500Y-78298000D02*
X158747000Y-78298000D01*
X164513500Y-78298000D02*
X165166000Y-78298000D01*
%TO.N,GNDREF*%
X191008000Y-84836000D02*
X190500000Y-84328000D01*
X160528000Y-78994000D02*
X161732000Y-80198000D01*
X190500000Y-84328000D02*
X189422500Y-84328000D01*
X188785000Y-78994000D02*
X189992000Y-78994000D01*
X189422500Y-84328000D02*
X189422500Y-83566000D01*
X161732000Y-80198000D02*
X164513500Y-80198000D01*
%TO.N,VS*%
X156909000Y-78486000D02*
X155702000Y-78486000D01*
%TO.N,/PWM*%
X166944000Y-78298000D02*
X166624000Y-77978000D01*
X168577500Y-78298000D02*
X166944000Y-78298000D01*
%TO.N,Net-(Q1-Pad2)*%
X183890000Y-79000000D02*
X182000000Y-79000000D01*
X169611000Y-80198000D02*
X168577500Y-80198000D01*
D17*
X182006000Y-78994000D02*
X182000000Y-79000000D01*
D16*
X170434000Y-79375000D02*
X169611000Y-80198000D01*
X187129000Y-79000000D02*
X183890000Y-79000000D01*
X170434000Y-78740000D02*
X170434000Y-79375000D01*
X187135000Y-78994000D02*
X187129000Y-79000000D01*
%TO.N,Net-(Q2-Pad3)*%
X186497500Y-83566000D02*
X182006000Y-83566000D01*
X182006000Y-83566000D02*
X182000000Y-83560000D01*
%TD*%
%TA.AperFunction,Conductor*%
%TO.N,VS*%
G36*
X56838121Y-77744002D02*
G01*
X56884614Y-77797658D01*
X56896000Y-77850000D01*
X56896000Y-78740000D01*
X58294000Y-78740000D01*
X58362121Y-78760002D01*
X58408614Y-78813658D01*
X58420000Y-78866000D01*
X58420000Y-83694000D01*
X58399998Y-83762121D01*
X58346342Y-83808614D01*
X58294000Y-83820000D01*
X56896000Y-83820000D01*
X56896000Y-84710000D01*
X56875998Y-84778121D01*
X56822342Y-84824614D01*
X56770000Y-84836000D01*
X54990000Y-84836000D01*
X54921879Y-84815998D01*
X54875386Y-84762342D01*
X54864000Y-84710000D01*
X54864000Y-83820000D01*
X53466000Y-83820000D01*
X53397879Y-83799998D01*
X53351386Y-83746342D01*
X53340000Y-83694000D01*
X53340000Y-78866000D01*
X53360002Y-78797879D01*
X53413658Y-78751386D01*
X53466000Y-78740000D01*
X54864000Y-78740000D01*
X54864000Y-77850000D01*
X54884002Y-77781879D01*
X54937658Y-77735386D01*
X54990000Y-77724000D01*
X56770000Y-77724000D01*
X56838121Y-77744002D01*
G37*
%TD.AperFunction*%
%TD*%
%TA.AperFunction,Conductor*%
%TO.N,GNDREF*%
G36*
X199078121Y-77744002D02*
G01*
X199124614Y-77797658D01*
X199136000Y-77850000D01*
X199136000Y-78740000D01*
X200534000Y-78740000D01*
X200602121Y-78760002D01*
X200648614Y-78813658D01*
X200660000Y-78866000D01*
X200660000Y-83694000D01*
X200639998Y-83762121D01*
X200586342Y-83808614D01*
X200534000Y-83820000D01*
X199136000Y-83820000D01*
X199136000Y-84710000D01*
X199115998Y-84778121D01*
X199062342Y-84824614D01*
X199010000Y-84836000D01*
X197230000Y-84836000D01*
X197161879Y-84815998D01*
X197115386Y-84762342D01*
X197104000Y-84710000D01*
X197104000Y-83820000D01*
X195706000Y-83820000D01*
X195637879Y-83799998D01*
X195591386Y-83746342D01*
X195580000Y-83694000D01*
X195580000Y-78866000D01*
X195600002Y-78797879D01*
X195653658Y-78751386D01*
X195706000Y-78740000D01*
X197104000Y-78740000D01*
X197104000Y-77850000D01*
X197124002Y-77781879D01*
X197177658Y-77735386D01*
X197230000Y-77724000D01*
X199010000Y-77724000D01*
X199078121Y-77744002D01*
G37*
%TD.AperFunction*%
%TD*%
%TA.AperFunction,Conductor*%
%TO.N,Net-(Q2-Pad2)*%
G36*
X152550162Y-77236502D02*
G01*
X152596655Y-77290158D01*
X152606759Y-77360432D01*
X152577265Y-77425012D01*
X152517539Y-77463396D01*
X152495509Y-77467778D01*
X152474205Y-77470068D01*
X152474199Y-77470069D01*
X152470841Y-77470430D01*
X152418499Y-77481816D01*
X152391709Y-77489166D01*
X152384858Y-77493067D01*
X152384856Y-77493068D01*
X152314153Y-77533329D01*
X152303722Y-77539269D01*
X152250066Y-77585762D01*
X152217944Y-77619051D01*
X152171013Y-77708770D01*
X152169270Y-77714706D01*
X152156328Y-77758784D01*
X152151011Y-77776891D01*
X152150371Y-77781339D01*
X152150370Y-77781346D01*
X152141139Y-77845552D01*
X152140500Y-77850000D01*
X152140500Y-79376000D01*
X152140860Y-79379346D01*
X152140860Y-79379351D01*
X152145736Y-79424702D01*
X152146430Y-79431159D01*
X152157816Y-79483501D01*
X152158261Y-79485123D01*
X152158262Y-79485127D01*
X152161186Y-79495784D01*
X152165166Y-79510291D01*
X152169067Y-79517142D01*
X152169068Y-79517144D01*
X152189284Y-79552645D01*
X152215269Y-79598278D01*
X152228402Y-79613434D01*
X152256390Y-79645734D01*
X152261762Y-79651934D01*
X152295051Y-79684056D01*
X152384770Y-79730987D01*
X152390706Y-79732730D01*
X152448568Y-79749720D01*
X152448572Y-79749721D01*
X152452891Y-79750989D01*
X152457339Y-79751629D01*
X152457346Y-79751630D01*
X152521552Y-79760861D01*
X152521559Y-79760861D01*
X152526000Y-79761500D01*
X154052000Y-79761500D01*
X154055346Y-79761140D01*
X154055351Y-79761140D01*
X154103795Y-79755932D01*
X154103801Y-79755931D01*
X154107159Y-79755570D01*
X154159501Y-79744184D01*
X154186291Y-79736834D01*
X154193142Y-79732933D01*
X154193144Y-79732932D01*
X154268899Y-79689794D01*
X154274278Y-79686731D01*
X154296262Y-79667682D01*
X154325811Y-79642078D01*
X154325816Y-79642073D01*
X154327934Y-79640238D01*
X154360056Y-79606949D01*
X154406987Y-79517230D01*
X154408730Y-79511294D01*
X154425720Y-79453432D01*
X154425721Y-79453428D01*
X154426989Y-79449109D01*
X154428084Y-79441498D01*
X154436861Y-79380448D01*
X154436861Y-79380441D01*
X154437500Y-79376000D01*
X154437500Y-78480082D01*
X155217605Y-78480082D01*
X155218769Y-78488984D01*
X155218769Y-78488987D01*
X155224688Y-78534251D01*
X155235414Y-78616273D01*
X155290732Y-78741992D01*
X155296510Y-78748865D01*
X155296510Y-78748866D01*
X155373284Y-78840200D01*
X155379111Y-78847132D01*
X155493447Y-78923240D01*
X155624549Y-78964199D01*
X155761876Y-78966716D01*
X155771109Y-78964199D01*
X155885727Y-78932951D01*
X155894391Y-78930589D01*
X155966808Y-78886125D01*
X156032736Y-78867500D01*
X156175366Y-78867500D01*
X156243487Y-78887502D01*
X156289980Y-78941158D01*
X156294247Y-78951745D01*
X156302791Y-78976076D01*
X156308383Y-78983646D01*
X156308384Y-78983649D01*
X156329667Y-79012463D01*
X156383990Y-79086010D01*
X156493924Y-79167209D01*
X156622873Y-79212493D01*
X156630515Y-79213215D01*
X156630518Y-79213216D01*
X156645421Y-79214624D01*
X156654685Y-79215500D01*
X156908828Y-79215500D01*
X157163314Y-79215499D01*
X157166262Y-79215220D01*
X157166271Y-79215220D01*
X157187478Y-79213216D01*
X157187480Y-79213216D01*
X157195127Y-79212493D01*
X157324076Y-79167209D01*
X157434010Y-79086010D01*
X157515209Y-78976076D01*
X157560493Y-78847127D01*
X157563500Y-78815315D01*
X157563499Y-78156686D01*
X157563499Y-78156685D01*
X157904500Y-78156685D01*
X157904501Y-78815314D01*
X157904780Y-78818262D01*
X157904780Y-78818271D01*
X157906784Y-78839478D01*
X157907507Y-78847127D01*
X157952791Y-78976076D01*
X158033990Y-79086010D01*
X158143924Y-79167209D01*
X158272873Y-79212493D01*
X158280515Y-79213215D01*
X158280518Y-79213216D01*
X158295421Y-79214624D01*
X158304685Y-79215500D01*
X158558828Y-79215500D01*
X158813314Y-79215499D01*
X158816262Y-79215220D01*
X158816271Y-79215220D01*
X158837478Y-79213216D01*
X158837480Y-79213216D01*
X158845127Y-79212493D01*
X158974076Y-79167209D01*
X159084010Y-79086010D01*
X159165209Y-78976076D01*
X159210493Y-78847127D01*
X159213500Y-78815315D01*
X159213500Y-78805500D01*
X159233502Y-78737379D01*
X159287158Y-78690886D01*
X159339500Y-78679500D01*
X159948638Y-78679500D01*
X160016759Y-78699502D01*
X160063252Y-78753158D01*
X160073356Y-78823432D01*
X160069132Y-78842340D01*
X160068551Y-78844240D01*
X160064736Y-78852366D01*
X160063355Y-78861234D01*
X160063355Y-78861235D01*
X160044986Y-78979209D01*
X160044986Y-78979213D01*
X160043605Y-78988082D01*
X160044769Y-78996984D01*
X160044769Y-78996987D01*
X160046554Y-79010633D01*
X160061414Y-79124273D01*
X160116732Y-79249992D01*
X160122510Y-79256865D01*
X160122510Y-79256866D01*
X160199331Y-79348256D01*
X160205111Y-79355132D01*
X160319447Y-79431240D01*
X160444410Y-79470281D01*
X160495931Y-79501453D01*
X161423958Y-80429480D01*
X161439311Y-80448489D01*
X161440278Y-80449552D01*
X161445929Y-80458304D01*
X161466543Y-80474555D01*
X161472472Y-80479229D01*
X161476950Y-80483208D01*
X161477010Y-80483137D01*
X161480967Y-80486490D01*
X161484648Y-80490171D01*
X161488880Y-80493195D01*
X161488882Y-80493197D01*
X161500457Y-80501469D01*
X161505202Y-80505032D01*
X161545670Y-80536934D01*
X161554355Y-80539984D01*
X161561842Y-80545334D01*
X161611247Y-80560109D01*
X161616842Y-80561927D01*
X161665502Y-80579016D01*
X161671091Y-80579500D01*
X161673804Y-80579500D01*
X161676469Y-80579615D01*
X161676532Y-80579634D01*
X161676525Y-80579808D01*
X161677271Y-80579855D01*
X161683524Y-80581725D01*
X161733383Y-80579766D01*
X161737678Y-80579597D01*
X161742625Y-80579500D01*
X163533261Y-80579500D01*
X163601382Y-80599502D01*
X163622356Y-80616405D01*
X163685277Y-80679326D01*
X163799445Y-80737498D01*
X163894166Y-80752500D01*
X165132834Y-80752500D01*
X165227555Y-80737498D01*
X165341723Y-80679326D01*
X165432326Y-80588723D01*
X165490498Y-80474555D01*
X165505500Y-80379834D01*
X165505500Y-80016166D01*
X165490498Y-79921445D01*
X165432326Y-79807277D01*
X165341723Y-79716674D01*
X165227555Y-79658502D01*
X165132834Y-79643500D01*
X163894166Y-79643500D01*
X163799445Y-79658502D01*
X163790611Y-79663003D01*
X163781178Y-79666068D01*
X163780258Y-79663237D01*
X163726151Y-79673398D01*
X163660366Y-79646698D01*
X163619460Y-79588670D01*
X163616720Y-79524749D01*
X163615498Y-79524555D01*
X163616454Y-79518522D01*
X163616454Y-79518520D01*
X163630500Y-79429834D01*
X163630500Y-79066166D01*
X163615498Y-78971445D01*
X163618435Y-78970980D01*
X163616867Y-78915931D01*
X163653535Y-78855136D01*
X163717250Y-78823817D01*
X163780794Y-78831113D01*
X163781178Y-78829932D01*
X163787012Y-78831827D01*
X163787783Y-78831916D01*
X163788937Y-78832453D01*
X163790611Y-78832997D01*
X163799445Y-78837498D01*
X163894166Y-78852500D01*
X165128787Y-78852500D01*
X165196908Y-78872502D01*
X165217882Y-78889405D01*
X165673969Y-79345492D01*
X165707995Y-79407804D01*
X165710486Y-79424702D01*
X165710500Y-79424880D01*
X165710500Y-79429834D01*
X165725502Y-79524555D01*
X165783674Y-79638723D01*
X165874277Y-79729326D01*
X165988445Y-79787498D01*
X166083166Y-79802500D01*
X167321834Y-79802500D01*
X167416555Y-79787498D01*
X167425389Y-79782997D01*
X167434822Y-79779932D01*
X167435742Y-79782763D01*
X167489849Y-79772602D01*
X167555634Y-79799302D01*
X167596540Y-79857330D01*
X167599280Y-79921251D01*
X167600502Y-79921445D01*
X167585500Y-80016166D01*
X167585500Y-80379834D01*
X167600502Y-80474555D01*
X167658674Y-80588723D01*
X167749277Y-80679326D01*
X167863445Y-80737498D01*
X167958166Y-80752500D01*
X169196834Y-80752500D01*
X169291555Y-80737498D01*
X169405723Y-80679326D01*
X169468489Y-80616560D01*
X169530801Y-80582534D01*
X169572159Y-80582489D01*
X169572198Y-80581663D01*
X169582600Y-80582153D01*
X169592780Y-80584345D01*
X169626341Y-80580373D01*
X169632320Y-80580021D01*
X169632312Y-80579928D01*
X169637490Y-80579500D01*
X169642692Y-80579500D01*
X169661846Y-80576312D01*
X169667704Y-80575478D01*
X169684318Y-80573512D01*
X169708567Y-80570642D01*
X169708568Y-80570642D01*
X169718907Y-80569418D01*
X169727206Y-80565433D01*
X169736283Y-80563922D01*
X169781651Y-80539442D01*
X169786914Y-80536761D01*
X169826250Y-80517873D01*
X169826254Y-80517870D01*
X169833398Y-80514440D01*
X169837692Y-80510830D01*
X169839624Y-80508898D01*
X169841573Y-80507111D01*
X169841626Y-80507082D01*
X169841745Y-80507212D01*
X169842313Y-80506711D01*
X169848057Y-80503612D01*
X169857685Y-80493197D01*
X169884867Y-80463791D01*
X169888297Y-80460225D01*
X170665476Y-79683046D01*
X170684499Y-79667682D01*
X170685558Y-79666718D01*
X170694304Y-79661071D01*
X170700752Y-79652892D01*
X170700754Y-79652890D01*
X170715234Y-79634523D01*
X170719209Y-79630050D01*
X170719137Y-79629989D01*
X170722490Y-79626032D01*
X170726171Y-79622351D01*
X170737455Y-79606560D01*
X170741019Y-79601814D01*
X170766487Y-79569508D01*
X170772934Y-79561330D01*
X170775984Y-79552645D01*
X170781335Y-79545157D01*
X170796115Y-79495734D01*
X170797927Y-79490160D01*
X170815016Y-79441498D01*
X170815500Y-79435909D01*
X170815500Y-79433198D01*
X170815615Y-79430531D01*
X170815634Y-79430468D01*
X170815808Y-79430475D01*
X170815855Y-79429729D01*
X170817725Y-79423476D01*
X170815597Y-79369312D01*
X170815500Y-79364366D01*
X170815500Y-79076953D01*
X170835687Y-79010926D01*
X170835612Y-79010890D01*
X170873373Y-78932951D01*
X170891585Y-78895362D01*
X170891585Y-78895361D01*
X170895499Y-78887283D01*
X170918286Y-78751836D01*
X170918431Y-78740000D01*
X170917584Y-78734082D01*
X170900232Y-78612923D01*
X170900232Y-78612921D01*
X170898959Y-78604036D01*
X170893970Y-78593062D01*
X170878166Y-78558304D01*
X170842110Y-78479003D01*
X170752453Y-78374951D01*
X170752425Y-78374933D01*
X180645500Y-78374933D01*
X180645501Y-79625066D01*
X180649322Y-79644275D01*
X180657766Y-79686731D01*
X180660266Y-79699301D01*
X180667161Y-79709620D01*
X180667162Y-79709622D01*
X180697384Y-79754852D01*
X180716516Y-79783484D01*
X180800699Y-79839734D01*
X180874933Y-79854500D01*
X181999818Y-79854500D01*
X183125066Y-79854499D01*
X183160818Y-79847388D01*
X183187126Y-79842156D01*
X183187128Y-79842155D01*
X183199301Y-79839734D01*
X183209621Y-79832839D01*
X183209622Y-79832838D01*
X183273168Y-79790377D01*
X183283484Y-79783484D01*
X183339734Y-79699301D01*
X183354500Y-79625067D01*
X183354500Y-79507500D01*
X183374502Y-79439379D01*
X183428158Y-79392886D01*
X183480500Y-79381500D01*
X183559609Y-79381500D01*
X183629427Y-79402613D01*
X183681447Y-79437240D01*
X183772705Y-79465751D01*
X183802934Y-79475195D01*
X183812549Y-79478199D01*
X183949876Y-79480716D01*
X183959109Y-79478199D01*
X184073727Y-79446951D01*
X184082391Y-79444589D01*
X184154808Y-79400125D01*
X184220736Y-79381500D01*
X186403473Y-79381500D01*
X186471594Y-79401502D01*
X186518087Y-79455158D01*
X186522355Y-79465751D01*
X186524726Y-79472500D01*
X186528791Y-79484076D01*
X186534383Y-79491646D01*
X186534384Y-79491649D01*
X186566538Y-79535181D01*
X186609990Y-79594010D01*
X186719924Y-79675209D01*
X186848873Y-79720493D01*
X186856515Y-79721215D01*
X186856518Y-79721216D01*
X186871421Y-79722624D01*
X186880685Y-79723500D01*
X187134828Y-79723500D01*
X187389314Y-79723499D01*
X187392262Y-79723220D01*
X187392271Y-79723220D01*
X187413478Y-79721216D01*
X187413480Y-79721216D01*
X187421127Y-79720493D01*
X187550076Y-79675209D01*
X187660010Y-79594010D01*
X187741209Y-79484076D01*
X187786493Y-79355127D01*
X187789500Y-79323315D01*
X187789499Y-78664686D01*
X187789499Y-78664685D01*
X188130500Y-78664685D01*
X188130501Y-79323314D01*
X188130780Y-79326262D01*
X188130780Y-79326271D01*
X188132784Y-79347478D01*
X188133507Y-79355127D01*
X188136052Y-79362374D01*
X188136053Y-79362377D01*
X188137579Y-79366721D01*
X188178791Y-79484076D01*
X188259990Y-79594010D01*
X188369924Y-79675209D01*
X188498873Y-79720493D01*
X188506515Y-79721215D01*
X188506518Y-79721216D01*
X188521421Y-79722624D01*
X188530685Y-79723500D01*
X188784828Y-79723500D01*
X189039314Y-79723499D01*
X189042262Y-79723220D01*
X189042271Y-79723220D01*
X189063478Y-79721216D01*
X189063480Y-79721216D01*
X189071127Y-79720493D01*
X189200076Y-79675209D01*
X189310010Y-79594010D01*
X189353462Y-79535181D01*
X189385616Y-79491649D01*
X189385617Y-79491646D01*
X189391209Y-79484076D01*
X189399752Y-79459750D01*
X189441195Y-79402106D01*
X189507224Y-79376018D01*
X189518634Y-79375500D01*
X189661609Y-79375500D01*
X189731427Y-79396613D01*
X189783447Y-79431240D01*
X189914549Y-79472199D01*
X190051876Y-79474716D01*
X190061109Y-79472199D01*
X190175727Y-79440951D01*
X190184391Y-79438589D01*
X190277369Y-79381500D01*
X190293791Y-79371417D01*
X190301439Y-79366721D01*
X190311929Y-79355132D01*
X190387584Y-79271550D01*
X190387585Y-79271549D01*
X190393612Y-79264890D01*
X190398946Y-79253882D01*
X190449585Y-79149362D01*
X190449585Y-79149361D01*
X190453499Y-79141283D01*
X190476286Y-79005836D01*
X190476431Y-78994000D01*
X190475584Y-78988082D01*
X190458232Y-78866923D01*
X190458232Y-78866921D01*
X190456959Y-78858036D01*
X190449823Y-78842340D01*
X190437535Y-78815315D01*
X190400110Y-78733003D01*
X190310453Y-78628951D01*
X190195196Y-78554244D01*
X190063603Y-78514890D01*
X190054627Y-78514835D01*
X190054626Y-78514835D01*
X189997080Y-78514484D01*
X189926255Y-78514051D01*
X189794192Y-78551795D01*
X189786602Y-78556584D01*
X189728787Y-78593062D01*
X189661552Y-78612500D01*
X189518634Y-78612500D01*
X189450513Y-78592498D01*
X189404020Y-78538842D01*
X189399751Y-78528249D01*
X189391209Y-78503924D01*
X189385617Y-78496354D01*
X189385616Y-78496351D01*
X189315602Y-78401561D01*
X189310010Y-78393990D01*
X189200076Y-78312791D01*
X189071127Y-78267507D01*
X189063485Y-78266785D01*
X189063482Y-78266784D01*
X189048579Y-78265376D01*
X189039315Y-78264500D01*
X188785172Y-78264500D01*
X188530686Y-78264501D01*
X188527738Y-78264780D01*
X188527729Y-78264780D01*
X188506522Y-78266784D01*
X188506520Y-78266784D01*
X188498873Y-78267507D01*
X188369924Y-78312791D01*
X188259990Y-78393990D01*
X188178791Y-78503924D01*
X188133507Y-78632873D01*
X188130500Y-78664685D01*
X187789499Y-78664685D01*
X187788735Y-78656595D01*
X187787216Y-78640522D01*
X187787215Y-78640518D01*
X187786493Y-78632873D01*
X187741209Y-78503924D01*
X187660010Y-78393990D01*
X187550076Y-78312791D01*
X187421127Y-78267507D01*
X187413485Y-78266785D01*
X187413482Y-78266784D01*
X187398579Y-78265376D01*
X187389315Y-78264500D01*
X187135172Y-78264500D01*
X186880686Y-78264501D01*
X186877738Y-78264780D01*
X186877729Y-78264780D01*
X186856522Y-78266784D01*
X186856520Y-78266784D01*
X186848873Y-78267507D01*
X186719924Y-78312791D01*
X186609990Y-78393990D01*
X186528791Y-78503924D01*
X186520249Y-78528249D01*
X186518141Y-78534251D01*
X186476697Y-78591895D01*
X186410666Y-78617983D01*
X186399259Y-78618500D01*
X184220337Y-78618500D01*
X184151804Y-78598232D01*
X184100727Y-78565125D01*
X184100725Y-78565124D01*
X184093196Y-78560244D01*
X183961603Y-78520890D01*
X183952627Y-78520835D01*
X183952626Y-78520835D01*
X183895080Y-78520484D01*
X183824255Y-78520051D01*
X183692192Y-78557795D01*
X183684602Y-78562584D01*
X183626787Y-78599062D01*
X183559552Y-78618500D01*
X183480499Y-78618500D01*
X183412378Y-78598498D01*
X183365885Y-78544842D01*
X183354499Y-78492500D01*
X183354499Y-78374934D01*
X183339734Y-78300699D01*
X183317073Y-78266784D01*
X183290377Y-78226832D01*
X183283484Y-78216516D01*
X183199301Y-78160266D01*
X183125067Y-78145500D01*
X182000182Y-78145500D01*
X180874934Y-78145501D01*
X180839182Y-78152612D01*
X180812874Y-78157844D01*
X180812872Y-78157845D01*
X180800699Y-78160266D01*
X180790379Y-78167161D01*
X180790378Y-78167162D01*
X180729985Y-78207516D01*
X180716516Y-78216516D01*
X180660266Y-78300699D01*
X180645500Y-78374933D01*
X170752425Y-78374933D01*
X170637196Y-78300244D01*
X170505603Y-78260890D01*
X170496627Y-78260835D01*
X170496626Y-78260835D01*
X170439080Y-78260484D01*
X170368255Y-78260051D01*
X170236192Y-78297795D01*
X170228605Y-78302582D01*
X170228603Y-78302583D01*
X170175255Y-78336243D01*
X170120031Y-78371087D01*
X170029109Y-78474036D01*
X170025295Y-78482159D01*
X170025294Y-78482161D01*
X170010322Y-78514051D01*
X169970736Y-78598366D01*
X169966668Y-78624493D01*
X169950986Y-78725209D01*
X169950986Y-78725213D01*
X169949605Y-78734082D01*
X169950769Y-78742984D01*
X169950769Y-78742987D01*
X169955521Y-78779326D01*
X169967414Y-78870273D01*
X170022732Y-78995992D01*
X170028508Y-79002863D01*
X170033253Y-79010487D01*
X170030079Y-79012463D01*
X170051486Y-79061380D01*
X170052500Y-79077329D01*
X170052500Y-79164787D01*
X170032498Y-79232908D01*
X170015595Y-79253882D01*
X169565895Y-79703582D01*
X169503583Y-79737608D01*
X169432768Y-79732543D01*
X169408639Y-79719590D01*
X169405723Y-79716674D01*
X169291555Y-79658502D01*
X169196834Y-79643500D01*
X167958166Y-79643500D01*
X167863445Y-79658502D01*
X167854611Y-79663003D01*
X167845178Y-79666068D01*
X167844258Y-79663237D01*
X167790151Y-79673398D01*
X167724366Y-79646698D01*
X167683460Y-79588670D01*
X167680720Y-79524749D01*
X167679498Y-79524555D01*
X167680454Y-79518522D01*
X167680454Y-79518520D01*
X167694500Y-79429834D01*
X167694500Y-79066166D01*
X167679498Y-78971445D01*
X167682435Y-78970980D01*
X167680867Y-78915931D01*
X167717535Y-78855136D01*
X167781250Y-78823817D01*
X167844794Y-78831113D01*
X167845178Y-78829932D01*
X167851012Y-78831827D01*
X167851783Y-78831916D01*
X167852937Y-78832453D01*
X167854611Y-78832997D01*
X167863445Y-78837498D01*
X167958166Y-78852500D01*
X169196834Y-78852500D01*
X169291555Y-78837498D01*
X169405723Y-78779326D01*
X169496326Y-78688723D01*
X169554498Y-78574555D01*
X169569500Y-78479834D01*
X169569500Y-78116166D01*
X169554498Y-78021445D01*
X169496326Y-77907277D01*
X169405723Y-77816674D01*
X169291555Y-77758502D01*
X169196834Y-77743500D01*
X167958166Y-77743500D01*
X167863445Y-77758502D01*
X167749277Y-77816674D01*
X167686356Y-77879595D01*
X167624044Y-77913621D01*
X167597261Y-77916500D01*
X167203840Y-77916500D01*
X167135719Y-77896498D01*
X167089226Y-77842842D01*
X167088980Y-77842182D01*
X167088959Y-77842036D01*
X167032110Y-77717003D01*
X166942453Y-77612951D01*
X166827196Y-77538244D01*
X166695603Y-77498890D01*
X166686627Y-77498835D01*
X166686626Y-77498835D01*
X166629080Y-77498484D01*
X166558255Y-77498051D01*
X166426192Y-77535795D01*
X166418605Y-77540582D01*
X166418603Y-77540583D01*
X166414264Y-77543321D01*
X166310031Y-77609087D01*
X166219109Y-77712036D01*
X166215295Y-77720159D01*
X166215294Y-77720161D01*
X166204036Y-77744141D01*
X166160736Y-77836366D01*
X166154005Y-77879595D01*
X166140986Y-77963209D01*
X166140986Y-77963213D01*
X166139605Y-77972082D01*
X166140769Y-77980984D01*
X166140769Y-77980987D01*
X166148510Y-78040178D01*
X166157414Y-78108273D01*
X166212732Y-78233992D01*
X166218510Y-78240865D01*
X166218510Y-78240866D01*
X166238377Y-78264501D01*
X166301111Y-78339132D01*
X166415447Y-78415240D01*
X166424017Y-78417917D01*
X166424016Y-78417917D01*
X166517851Y-78447233D01*
X166576907Y-78486639D01*
X166605285Y-78551718D01*
X166593973Y-78621807D01*
X166546563Y-78674655D01*
X166480277Y-78693500D01*
X166153213Y-78693500D01*
X166085092Y-78673498D01*
X166064117Y-78656595D01*
X165801513Y-78393990D01*
X165531026Y-78123503D01*
X165495673Y-78054119D01*
X165492049Y-78031237D01*
X165492049Y-78031236D01*
X165490498Y-78021445D01*
X165432326Y-77907277D01*
X165341723Y-77816674D01*
X165227555Y-77758502D01*
X165132834Y-77743500D01*
X163894166Y-77743500D01*
X163799445Y-77758502D01*
X163685277Y-77816674D01*
X163622356Y-77879595D01*
X163560044Y-77913621D01*
X163533261Y-77916500D01*
X159164731Y-77916500D01*
X159096610Y-77896498D01*
X159084656Y-77886864D01*
X159084010Y-77885990D01*
X158974076Y-77804791D01*
X158845127Y-77759507D01*
X158837485Y-77758785D01*
X158837482Y-77758784D01*
X158822579Y-77757376D01*
X158813315Y-77756500D01*
X158559172Y-77756500D01*
X158304686Y-77756501D01*
X158301738Y-77756780D01*
X158301729Y-77756780D01*
X158280522Y-77758784D01*
X158280520Y-77758784D01*
X158272873Y-77759507D01*
X158143924Y-77804791D01*
X158033990Y-77885990D01*
X157952791Y-77995924D01*
X157907507Y-78124873D01*
X157904500Y-78156685D01*
X157563499Y-78156685D01*
X157562557Y-78146709D01*
X157561216Y-78132522D01*
X157561215Y-78132518D01*
X157560493Y-78124873D01*
X157515209Y-77995924D01*
X157434010Y-77885990D01*
X157324076Y-77804791D01*
X157195127Y-77759507D01*
X157187485Y-77758785D01*
X157187482Y-77758784D01*
X157172579Y-77757376D01*
X157163315Y-77756500D01*
X156909172Y-77756500D01*
X156654686Y-77756501D01*
X156651738Y-77756780D01*
X156651729Y-77756780D01*
X156630522Y-77758784D01*
X156630520Y-77758784D01*
X156622873Y-77759507D01*
X156493924Y-77804791D01*
X156383990Y-77885990D01*
X156378398Y-77893561D01*
X156308384Y-77988351D01*
X156308383Y-77988354D01*
X156302791Y-77995924D01*
X156296931Y-78012612D01*
X156294249Y-78020249D01*
X156252805Y-78077894D01*
X156186776Y-78103982D01*
X156175366Y-78104500D01*
X156032337Y-78104500D01*
X155963804Y-78084232D01*
X155912727Y-78051125D01*
X155912725Y-78051124D01*
X155905196Y-78046244D01*
X155773603Y-78006890D01*
X155764627Y-78006835D01*
X155764626Y-78006835D01*
X155707080Y-78006484D01*
X155636255Y-78006051D01*
X155504192Y-78043795D01*
X155496605Y-78048582D01*
X155496603Y-78048583D01*
X155487829Y-78054119D01*
X155388031Y-78117087D01*
X155382088Y-78123816D01*
X155303051Y-78213308D01*
X155297109Y-78220036D01*
X155293295Y-78228159D01*
X155293294Y-78228161D01*
X155287329Y-78240866D01*
X155238736Y-78344366D01*
X155233013Y-78381122D01*
X155218986Y-78471209D01*
X155218986Y-78471213D01*
X155217605Y-78480082D01*
X154437500Y-78480082D01*
X154437500Y-77850000D01*
X154437022Y-77845552D01*
X154431932Y-77798205D01*
X154431931Y-77798199D01*
X154431570Y-77794841D01*
X154420184Y-77742499D01*
X154412834Y-77715709D01*
X154406912Y-77705308D01*
X154365794Y-77633101D01*
X154362731Y-77627722D01*
X154326373Y-77585762D01*
X154318078Y-77576189D01*
X154318073Y-77576184D01*
X154316238Y-77574066D01*
X154282949Y-77541944D01*
X154193230Y-77495013D01*
X154166213Y-77487080D01*
X154129432Y-77476280D01*
X154129428Y-77476279D01*
X154125109Y-77475011D01*
X154120661Y-77474371D01*
X154120654Y-77474370D01*
X154070905Y-77467218D01*
X154006324Y-77437725D01*
X153967940Y-77377999D01*
X153967940Y-77307002D01*
X154006323Y-77247276D01*
X154070904Y-77217783D01*
X154088836Y-77216500D01*
X192914000Y-77216500D01*
X192982121Y-77236502D01*
X193028614Y-77290158D01*
X193040000Y-77342500D01*
X193040000Y-85217500D01*
X193019998Y-85285621D01*
X192966342Y-85332114D01*
X192914000Y-85343500D01*
X191479443Y-85343500D01*
X191411322Y-85323498D01*
X191364829Y-85269842D01*
X191354725Y-85199568D01*
X191386027Y-85132946D01*
X191409612Y-85106890D01*
X191421338Y-85082689D01*
X191465585Y-84991362D01*
X191465585Y-84991361D01*
X191469499Y-84983283D01*
X191492286Y-84847836D01*
X191492431Y-84836000D01*
X191490785Y-84824502D01*
X191474232Y-84708923D01*
X191474232Y-84708921D01*
X191472959Y-84700036D01*
X191416110Y-84575003D01*
X191326453Y-84470951D01*
X191211196Y-84396244D01*
X191202596Y-84393672D01*
X191094129Y-84361234D01*
X191041135Y-84329612D01*
X190808043Y-84096520D01*
X190792684Y-84077504D01*
X190791720Y-84076444D01*
X190786071Y-84067696D01*
X190777896Y-84061252D01*
X190777894Y-84061249D01*
X190759528Y-84046771D01*
X190755053Y-84042794D01*
X190754992Y-84042865D01*
X190751035Y-84039512D01*
X190747352Y-84035829D01*
X190731561Y-84024545D01*
X190726815Y-84020982D01*
X190694507Y-83995512D01*
X190694506Y-83995511D01*
X190686330Y-83989066D01*
X190677643Y-83986015D01*
X190670157Y-83980666D01*
X190660181Y-83977683D01*
X190660180Y-83977682D01*
X190620789Y-83965902D01*
X190615157Y-83964072D01*
X190566498Y-83946984D01*
X190560909Y-83946500D01*
X190558198Y-83946500D01*
X190555531Y-83946385D01*
X190555468Y-83946366D01*
X190555475Y-83946192D01*
X190554729Y-83946145D01*
X190548476Y-83944275D01*
X190499692Y-83946192D01*
X190494322Y-83946403D01*
X190489375Y-83946500D01*
X190365500Y-83946500D01*
X190297379Y-83926498D01*
X190250886Y-83872842D01*
X190239500Y-83820500D01*
X190239500Y-82443244D01*
X190232798Y-82381552D01*
X190182071Y-82246236D01*
X190176691Y-82239057D01*
X190176689Y-82239054D01*
X190100785Y-82137776D01*
X190095404Y-82130596D01*
X190074977Y-82115287D01*
X189986946Y-82049311D01*
X189986943Y-82049309D01*
X189979764Y-82043929D01*
X189890046Y-82010296D01*
X189851843Y-81995974D01*
X189851841Y-81995974D01*
X189844448Y-81993202D01*
X189836598Y-81992349D01*
X189836597Y-81992349D01*
X189786153Y-81986869D01*
X189786152Y-81986869D01*
X189782756Y-81986500D01*
X189062244Y-81986500D01*
X189058848Y-81986869D01*
X189058847Y-81986869D01*
X189008403Y-81992349D01*
X189008402Y-81992349D01*
X189000552Y-81993202D01*
X188993159Y-81995974D01*
X188993157Y-81995974D01*
X188954954Y-82010296D01*
X188865236Y-82043929D01*
X188858057Y-82049309D01*
X188858054Y-82049311D01*
X188770023Y-82115287D01*
X188749596Y-82130596D01*
X188744215Y-82137776D01*
X188668311Y-82239054D01*
X188668309Y-82239057D01*
X188662929Y-82246236D01*
X188612202Y-82381552D01*
X188605500Y-82443244D01*
X188605500Y-84688756D01*
X188605869Y-84692152D01*
X188605869Y-84692153D01*
X188607754Y-84709500D01*
X188612202Y-84750448D01*
X188614974Y-84757841D01*
X188614974Y-84757843D01*
X188618683Y-84767737D01*
X188662929Y-84885764D01*
X188668309Y-84892943D01*
X188668311Y-84892946D01*
X188673831Y-84900311D01*
X188749596Y-85001404D01*
X188756776Y-85006785D01*
X188858054Y-85082689D01*
X188858057Y-85082691D01*
X188865236Y-85088071D01*
X188891977Y-85098095D01*
X188895771Y-85099518D01*
X188952536Y-85142159D01*
X188977236Y-85208721D01*
X188962029Y-85278070D01*
X188911743Y-85328188D01*
X188851542Y-85343500D01*
X187068458Y-85343500D01*
X187000337Y-85323498D01*
X186953844Y-85269842D01*
X186943740Y-85199568D01*
X186973234Y-85134988D01*
X187024229Y-85099518D01*
X187028023Y-85098095D01*
X187054764Y-85088071D01*
X187061943Y-85082691D01*
X187061946Y-85082689D01*
X187163224Y-85006785D01*
X187170404Y-85001404D01*
X187246169Y-84900311D01*
X187251689Y-84892946D01*
X187251691Y-84892943D01*
X187257071Y-84885764D01*
X187301317Y-84767737D01*
X187305026Y-84757843D01*
X187305026Y-84757841D01*
X187307798Y-84750448D01*
X187312247Y-84709500D01*
X187314131Y-84692153D01*
X187314131Y-84692152D01*
X187314500Y-84688756D01*
X187314500Y-82443244D01*
X187307798Y-82381552D01*
X187257071Y-82246236D01*
X187251691Y-82239057D01*
X187251689Y-82239054D01*
X187175785Y-82137776D01*
X187170404Y-82130596D01*
X187149977Y-82115287D01*
X187061946Y-82049311D01*
X187061943Y-82049309D01*
X187054764Y-82043929D01*
X186965046Y-82010296D01*
X186926843Y-81995974D01*
X186926841Y-81995974D01*
X186919448Y-81993202D01*
X186911598Y-81992349D01*
X186911597Y-81992349D01*
X186861153Y-81986869D01*
X186861152Y-81986869D01*
X186857756Y-81986500D01*
X186137244Y-81986500D01*
X186133848Y-81986869D01*
X186133847Y-81986869D01*
X186083403Y-81992349D01*
X186083402Y-81992349D01*
X186075552Y-81993202D01*
X186068159Y-81995974D01*
X186068157Y-81995974D01*
X186029954Y-82010296D01*
X185940236Y-82043929D01*
X185933057Y-82049309D01*
X185933054Y-82049311D01*
X185845023Y-82115287D01*
X185824596Y-82130596D01*
X185819215Y-82137776D01*
X185743311Y-82239054D01*
X185743309Y-82239057D01*
X185737929Y-82246236D01*
X185687202Y-82381552D01*
X185680500Y-82443244D01*
X185680500Y-83058500D01*
X185660498Y-83126621D01*
X185606842Y-83173114D01*
X185554500Y-83184500D01*
X183480499Y-83184500D01*
X183412378Y-83164498D01*
X183365885Y-83110842D01*
X183354499Y-83058500D01*
X183354499Y-82934934D01*
X183339734Y-82860699D01*
X183283484Y-82776516D01*
X183199301Y-82720266D01*
X183125067Y-82705500D01*
X182000182Y-82705500D01*
X180874934Y-82705501D01*
X180839182Y-82712612D01*
X180812874Y-82717844D01*
X180812872Y-82717845D01*
X180800699Y-82720266D01*
X180790379Y-82727161D01*
X180790378Y-82727162D01*
X180729985Y-82767516D01*
X180716516Y-82776516D01*
X180660266Y-82860699D01*
X180645500Y-82934933D01*
X180645501Y-84185066D01*
X180660266Y-84259301D01*
X180716516Y-84343484D01*
X180800699Y-84399734D01*
X180874933Y-84414500D01*
X181999818Y-84414500D01*
X183125066Y-84414499D01*
X183160818Y-84407388D01*
X183187126Y-84402156D01*
X183187128Y-84402155D01*
X183199301Y-84399734D01*
X183209621Y-84392839D01*
X183209622Y-84392838D01*
X183273168Y-84350377D01*
X183283484Y-84343484D01*
X183339734Y-84259301D01*
X183354500Y-84185067D01*
X183354500Y-84073500D01*
X183374502Y-84005379D01*
X183428158Y-83958886D01*
X183480500Y-83947500D01*
X185554500Y-83947500D01*
X185622621Y-83967502D01*
X185669114Y-84021158D01*
X185680500Y-84073500D01*
X185680500Y-84688756D01*
X185680869Y-84692152D01*
X185680869Y-84692153D01*
X185682754Y-84709500D01*
X185687202Y-84750448D01*
X185689974Y-84757841D01*
X185689974Y-84757843D01*
X185693683Y-84767737D01*
X185737929Y-84885764D01*
X185743309Y-84892943D01*
X185743311Y-84892946D01*
X185748831Y-84900311D01*
X185824596Y-85001404D01*
X185831776Y-85006785D01*
X185933054Y-85082689D01*
X185933057Y-85082691D01*
X185940236Y-85088071D01*
X185966977Y-85098095D01*
X185970771Y-85099518D01*
X186027536Y-85142159D01*
X186052236Y-85208721D01*
X186037029Y-85278070D01*
X185986743Y-85328188D01*
X185926542Y-85343500D01*
X61086000Y-85343500D01*
X61017879Y-85323498D01*
X60971386Y-85269842D01*
X60960000Y-85217500D01*
X60960000Y-77342500D01*
X60980002Y-77274379D01*
X61033658Y-77227886D01*
X61086000Y-77216500D01*
X152482041Y-77216500D01*
X152550162Y-77236502D01*
G37*
%TD.AperFunction*%
%TD*%
%TA.AperFunction,Conductor*%
%TO.N,/PWM*%
G36*
X154120121Y-77744002D02*
G01*
X154166614Y-77797658D01*
X154178000Y-77850000D01*
X154178000Y-79376000D01*
X154157998Y-79444121D01*
X154104342Y-79490614D01*
X154052000Y-79502000D01*
X152526000Y-79502000D01*
X152457879Y-79481998D01*
X152411386Y-79428342D01*
X152400000Y-79376000D01*
X152400000Y-77850000D01*
X152420002Y-77781879D01*
X152473658Y-77735386D01*
X152526000Y-77724000D01*
X154052000Y-77724000D01*
X154120121Y-77744002D01*
G37*
%TD.AperFunction*%
%TD*%
M02*
