%TF.GenerationSoftware,KiCad,Pcbnew,(6.0.6-1)-1*%
%TF.CreationDate,2023-01-18T10:03:02-08:00*%
%TF.ProjectId,Headlights,48656164-6c69-4676-9874-732e6b696361,rev?*%
%TF.SameCoordinates,Original*%
%TF.FileFunction,Legend,Top*%
%TF.FilePolarity,Positive*%
%FSLAX46Y46*%
G04 Gerber Fmt 4.6, Leading zero omitted, Abs format (unit mm)*
G04 Created by KiCad (PCBNEW (6.0.6-1)-1) date 2023-01-18 10:03:02*
%MOMM*%
%LPD*%
G01*
G04 APERTURE LIST*
%ADD10C,0.120000*%
%ADD11C,0.100000*%
G04 APERTURE END LIST*
D10*
%TO.C,D9*%
X182140000Y-79480000D02*
X182340000Y-79280000D01*
X182340000Y-79280000D02*
X182140000Y-79080000D01*
X182140000Y-83480000D02*
X182340000Y-83280000D01*
X182340000Y-83280000D02*
X182140000Y-83080000D01*
X180340000Y-83480000D02*
X180340000Y-79080000D01*
D11*
X182840000Y-83780000D02*
X177840000Y-83780000D01*
X177840000Y-83780000D02*
X177840000Y-78780000D01*
X177840000Y-78780000D02*
X182840000Y-78780000D01*
X182840000Y-78780000D02*
X182840000Y-83780000D01*
D10*
%TO.C,D4*%
X93240000Y-79480000D02*
X93440000Y-79280000D01*
X91440000Y-83480000D02*
X91440000Y-79080000D01*
X93440000Y-83280000D02*
X93240000Y-83080000D01*
X93240000Y-83480000D02*
X93440000Y-83280000D01*
X93440000Y-79280000D02*
X93240000Y-79080000D01*
D11*
X93940000Y-83780000D02*
X88940000Y-83780000D01*
X88940000Y-83780000D02*
X88940000Y-78780000D01*
X88940000Y-78780000D02*
X93940000Y-78780000D01*
X93940000Y-78780000D02*
X93940000Y-83780000D01*
D10*
%TO.C,D10*%
X200120000Y-79280000D02*
X199920000Y-79080000D01*
X198120000Y-83480000D02*
X198120000Y-79080000D01*
X199920000Y-79480000D02*
X200120000Y-79280000D01*
X199920000Y-83480000D02*
X200120000Y-83280000D01*
X200120000Y-83280000D02*
X199920000Y-83080000D01*
D11*
X200620000Y-83780000D02*
X195620000Y-83780000D01*
X195620000Y-83780000D02*
X195620000Y-78780000D01*
X195620000Y-78780000D02*
X200620000Y-78780000D01*
X200620000Y-78780000D02*
X200620000Y-83780000D01*
D10*
%TO.C,D2*%
X57680000Y-79480000D02*
X57880000Y-79280000D01*
X57880000Y-79280000D02*
X57680000Y-79080000D01*
X57880000Y-83280000D02*
X57680000Y-83080000D01*
X57680000Y-83480000D02*
X57880000Y-83280000D01*
X55880000Y-83480000D02*
X55880000Y-79080000D01*
D11*
X58380000Y-83780000D02*
X53380000Y-83780000D01*
X53380000Y-83780000D02*
X53380000Y-78780000D01*
X53380000Y-78780000D02*
X58380000Y-78780000D01*
X58380000Y-78780000D02*
X58380000Y-83780000D01*
D10*
%TO.C,D7*%
X146780000Y-83280000D02*
X146580000Y-83080000D01*
X146780000Y-79280000D02*
X146580000Y-79080000D01*
X144780000Y-83480000D02*
X144780000Y-79080000D01*
X146580000Y-83480000D02*
X146780000Y-83280000D01*
X146580000Y-79480000D02*
X146780000Y-79280000D01*
D11*
X147280000Y-83780000D02*
X142280000Y-83780000D01*
X142280000Y-83780000D02*
X142280000Y-78780000D01*
X142280000Y-78780000D02*
X147280000Y-78780000D01*
X147280000Y-78780000D02*
X147280000Y-83780000D01*
D10*
%TO.C,D5*%
X109220000Y-83480000D02*
X109220000Y-79080000D01*
X111220000Y-83280000D02*
X111020000Y-83080000D01*
X111020000Y-79480000D02*
X111220000Y-79280000D01*
X111220000Y-79280000D02*
X111020000Y-79080000D01*
X111020000Y-83480000D02*
X111220000Y-83280000D01*
D11*
X111720000Y-83780000D02*
X106720000Y-83780000D01*
X106720000Y-83780000D02*
X106720000Y-78780000D01*
X106720000Y-78780000D02*
X111720000Y-78780000D01*
X111720000Y-78780000D02*
X111720000Y-83780000D01*
D10*
%TO.C,D8*%
X164360000Y-79480000D02*
X164560000Y-79280000D01*
X164560000Y-79280000D02*
X164360000Y-79080000D01*
X162560000Y-83480000D02*
X162560000Y-79080000D01*
X164360000Y-83480000D02*
X164560000Y-83280000D01*
X164560000Y-83280000D02*
X164360000Y-83080000D01*
D11*
X165060000Y-83780000D02*
X160060000Y-83780000D01*
X160060000Y-83780000D02*
X160060000Y-78780000D01*
X160060000Y-78780000D02*
X165060000Y-78780000D01*
X165060000Y-78780000D02*
X165060000Y-83780000D01*
D10*
%TO.C,D3*%
X75460000Y-83480000D02*
X75660000Y-83280000D01*
X75660000Y-79280000D02*
X75460000Y-79080000D01*
X73660000Y-83480000D02*
X73660000Y-79080000D01*
X75660000Y-83280000D02*
X75460000Y-83080000D01*
X75460000Y-79480000D02*
X75660000Y-79280000D01*
D11*
X76160000Y-83780000D02*
X71160000Y-83780000D01*
X71160000Y-83780000D02*
X71160000Y-78780000D01*
X71160000Y-78780000D02*
X76160000Y-78780000D01*
X76160000Y-78780000D02*
X76160000Y-83780000D01*
D10*
%TO.C,D6*%
X129000000Y-79280000D02*
X128800000Y-79080000D01*
X127000000Y-83480000D02*
X127000000Y-79080000D01*
X128800000Y-79480000D02*
X129000000Y-79280000D01*
X128800000Y-83480000D02*
X129000000Y-83280000D01*
X129000000Y-83280000D02*
X128800000Y-83080000D01*
D11*
X129500000Y-83780000D02*
X124500000Y-83780000D01*
X124500000Y-83780000D02*
X124500000Y-78780000D01*
X124500000Y-78780000D02*
X129500000Y-78780000D01*
X129500000Y-78780000D02*
X129500000Y-83780000D01*
%TD*%
M02*
