%TF.GenerationSoftware,KiCad,Pcbnew,(6.0.6-1)-1*%
%TF.CreationDate,2023-01-18T10:03:02-08:00*%
%TF.ProjectId,Headlights,48656164-6c69-4676-9874-732e6b696361,rev?*%
%TF.SameCoordinates,Original*%
%TF.FileFunction,Copper,L3,Inr*%
%TF.FilePolarity,Positive*%
%FSLAX46Y46*%
G04 Gerber Fmt 4.6, Leading zero omitted, Abs format (unit mm)*
G04 Created by KiCad (PCBNEW (6.0.6-1)-1) date 2023-01-18 10:03:02*
%MOMM*%
%LPD*%
G01*
G04 APERTURE LIST*
%TA.AperFunction,ViaPad*%
%ADD10C,0.450000*%
%TD*%
%TA.AperFunction,Conductor*%
%ADD11C,0.635000*%
%TD*%
%TA.AperFunction,Conductor*%
%ADD12C,0.254000*%
%TD*%
G04 APERTURE END LIST*
D10*
%TO.N,GNDREF*%
X189992000Y-78994000D03*
X198628000Y-84328000D03*
X191008000Y-84836000D03*
X198628000Y-78232000D03*
X197612000Y-78232000D03*
X160528000Y-78994000D03*
X197612000Y-84328000D03*
%TO.N,VS*%
X54864000Y-80264000D03*
X55372000Y-78232000D03*
X56388000Y-78232000D03*
X155702000Y-78486000D03*
X55372000Y-84328000D03*
X54864000Y-82296000D03*
X56388000Y-84328000D03*
%TO.N,Net-(Q2-Pad2)*%
X191008000Y-83566000D03*
X192532000Y-84836000D03*
X192532000Y-77724000D03*
X191008000Y-78994000D03*
X201168000Y-82550000D03*
X201168000Y-80010000D03*
X201168000Y-81280000D03*
%TO.N,/PWM*%
X166624000Y-77978000D03*
X153162000Y-78740000D03*
%TO.N,Net-(Q1-Pad2)*%
X183890000Y-79000000D03*
X170434000Y-78740000D03*
%TD*%
D11*
%TO.N,VS*%
X56896000Y-77724000D02*
X56388000Y-78232000D01*
X155702000Y-78486000D02*
X154940000Y-77724000D01*
X154940000Y-77724000D02*
X56896000Y-77724000D01*
D12*
%TO.N,/PWM*%
X158750000Y-77978000D02*
X166624000Y-77978000D01*
X153670000Y-79248000D02*
X157480000Y-79248000D01*
X157480000Y-79248000D02*
X158750000Y-77978000D01*
X153162000Y-78740000D02*
X153670000Y-79248000D01*
%TO.N,Net-(Q1-Pad2)*%
X183642000Y-78740000D02*
X183890000Y-78988000D01*
X183890000Y-78988000D02*
X183890000Y-79000000D01*
X170434000Y-78740000D02*
X183642000Y-78740000D01*
%TD*%
%TA.AperFunction,Conductor*%
%TO.N,Net-(Q2-Pad2)*%
G36*
X192982121Y-77236502D02*
G01*
X193028614Y-77290158D01*
X193040000Y-77342500D01*
X193040000Y-79502000D01*
X201550000Y-79502000D01*
X201618121Y-79522002D01*
X201664614Y-79575658D01*
X201676000Y-79628000D01*
X201676000Y-82932000D01*
X201655998Y-83000121D01*
X201602342Y-83046614D01*
X201550000Y-83058000D01*
X193040000Y-83058000D01*
X193040000Y-85217500D01*
X193019998Y-85285621D01*
X192966342Y-85332114D01*
X192914000Y-85343500D01*
X191479443Y-85343500D01*
X191411322Y-85323498D01*
X191364829Y-85269842D01*
X191354725Y-85199568D01*
X191386027Y-85132946D01*
X191409612Y-85106890D01*
X191469499Y-84983283D01*
X191492286Y-84847836D01*
X191492431Y-84836000D01*
X191491584Y-84830082D01*
X191474232Y-84708923D01*
X191474232Y-84708921D01*
X191472959Y-84700036D01*
X191416110Y-84575003D01*
X191326453Y-84470951D01*
X191211196Y-84396244D01*
X191079603Y-84356890D01*
X191070627Y-84356835D01*
X191070626Y-84356835D01*
X191013080Y-84356484D01*
X190942255Y-84356051D01*
X190810192Y-84393795D01*
X190802605Y-84398582D01*
X190802603Y-84398583D01*
X190708000Y-84458273D01*
X190694031Y-84467087D01*
X190692138Y-84464087D01*
X190642782Y-84486079D01*
X190572604Y-84475329D01*
X190519379Y-84428343D01*
X190500000Y-84361202D01*
X190500000Y-77342500D01*
X190520002Y-77274379D01*
X190573658Y-77227886D01*
X190626000Y-77216500D01*
X192914000Y-77216500D01*
X192982121Y-77236502D01*
G37*
%TD.AperFunction*%
%TD*%
M02*
