%TF.GenerationSoftware,KiCad,Pcbnew,(6.0.6-1)-1*%
%TF.CreationDate,2023-01-18T10:03:02-08:00*%
%TF.ProjectId,Headlights,48656164-6c69-4676-9874-732e6b696361,rev?*%
%TF.SameCoordinates,Original*%
%TF.FileFunction,Legend,Bot*%
%TF.FilePolarity,Positive*%
%FSLAX46Y46*%
G04 Gerber Fmt 4.6, Leading zero omitted, Abs format (unit mm)*
G04 Created by KiCad (PCBNEW (6.0.6-1)-1) date 2023-01-18 10:03:02*
%MOMM*%
%LPD*%
G01*
G04 APERTURE LIST*
%ADD10C,0.150000*%
%ADD11C,0.120000*%
G04 APERTURE END LIST*
D10*
X59517500Y-81351428D02*
X58755595Y-81351428D01*
X59136547Y-81732380D02*
X59136547Y-80970476D01*
X152064404Y-79192380D02*
X152064404Y-78192380D01*
X151683452Y-78192380D01*
X151588214Y-78240000D01*
X151540595Y-78287619D01*
X151492976Y-78382857D01*
X151492976Y-78525714D01*
X151540595Y-78620952D01*
X151588214Y-78668571D01*
X151683452Y-78716190D01*
X152064404Y-78716190D01*
X151159642Y-78192380D02*
X150921547Y-79192380D01*
X150731071Y-78478095D01*
X150540595Y-79192380D01*
X150302500Y-78192380D01*
X149921547Y-79192380D02*
X149921547Y-78192380D01*
X149588214Y-78906666D01*
X149254880Y-78192380D01*
X149254880Y-79192380D01*
X195244404Y-81351428D02*
X194482500Y-81351428D01*
X134380952Y-79927380D02*
X134047619Y-80927380D01*
X133714285Y-79927380D01*
X133380952Y-80403571D02*
X133047619Y-80403571D01*
X132904761Y-80927380D02*
X133380952Y-80927380D01*
X133380952Y-79927380D01*
X132904761Y-79927380D01*
X132523809Y-80879761D02*
X132380952Y-80927380D01*
X132142857Y-80927380D01*
X132047619Y-80879761D01*
X132000000Y-80832142D01*
X131952380Y-80736904D01*
X131952380Y-80641666D01*
X132000000Y-80546428D01*
X132047619Y-80498809D01*
X132142857Y-80451190D01*
X132333333Y-80403571D01*
X132428571Y-80355952D01*
X132476190Y-80308333D01*
X132523809Y-80213095D01*
X132523809Y-80117857D01*
X132476190Y-80022619D01*
X132428571Y-79975000D01*
X132333333Y-79927380D01*
X132095238Y-79927380D01*
X131952380Y-79975000D01*
X130952380Y-80832142D02*
X131000000Y-80879761D01*
X131142857Y-80927380D01*
X131238095Y-80927380D01*
X131380952Y-80879761D01*
X131476190Y-80784523D01*
X131523809Y-80689285D01*
X131571428Y-80498809D01*
X131571428Y-80355952D01*
X131523809Y-80165476D01*
X131476190Y-80070238D01*
X131380952Y-79975000D01*
X131238095Y-79927380D01*
X131142857Y-79927380D01*
X131000000Y-79975000D01*
X130952380Y-80022619D01*
X129761904Y-80927380D02*
X129761904Y-79927380D01*
X129761904Y-80403571D02*
X129190476Y-80403571D01*
X129190476Y-80927380D02*
X129190476Y-79927380D01*
X128333333Y-80879761D02*
X128428571Y-80927380D01*
X128619047Y-80927380D01*
X128714285Y-80879761D01*
X128761904Y-80784523D01*
X128761904Y-80403571D01*
X128714285Y-80308333D01*
X128619047Y-80260714D01*
X128428571Y-80260714D01*
X128333333Y-80308333D01*
X128285714Y-80403571D01*
X128285714Y-80498809D01*
X128761904Y-80594047D01*
X127428571Y-80927380D02*
X127428571Y-80403571D01*
X127476190Y-80308333D01*
X127571428Y-80260714D01*
X127761904Y-80260714D01*
X127857142Y-80308333D01*
X127428571Y-80879761D02*
X127523809Y-80927380D01*
X127761904Y-80927380D01*
X127857142Y-80879761D01*
X127904761Y-80784523D01*
X127904761Y-80689285D01*
X127857142Y-80594047D01*
X127761904Y-80546428D01*
X127523809Y-80546428D01*
X127428571Y-80498809D01*
X126523809Y-80927380D02*
X126523809Y-79927380D01*
X126523809Y-80879761D02*
X126619047Y-80927380D01*
X126809523Y-80927380D01*
X126904761Y-80879761D01*
X126952380Y-80832142D01*
X127000000Y-80736904D01*
X127000000Y-80451190D01*
X126952380Y-80355952D01*
X126904761Y-80308333D01*
X126809523Y-80260714D01*
X126619047Y-80260714D01*
X126523809Y-80308333D01*
X125904761Y-80927380D02*
X126000000Y-80879761D01*
X126047619Y-80784523D01*
X126047619Y-79927380D01*
X125523809Y-80927380D02*
X125523809Y-80260714D01*
X125523809Y-79927380D02*
X125571428Y-79975000D01*
X125523809Y-80022619D01*
X125476190Y-79975000D01*
X125523809Y-79927380D01*
X125523809Y-80022619D01*
X124619047Y-80260714D02*
X124619047Y-81070238D01*
X124666666Y-81165476D01*
X124714285Y-81213095D01*
X124809523Y-81260714D01*
X124952380Y-81260714D01*
X125047619Y-81213095D01*
X124619047Y-80879761D02*
X124714285Y-80927380D01*
X124904761Y-80927380D01*
X125000000Y-80879761D01*
X125047619Y-80832142D01*
X125095238Y-80736904D01*
X125095238Y-80451190D01*
X125047619Y-80355952D01*
X125000000Y-80308333D01*
X124904761Y-80260714D01*
X124714285Y-80260714D01*
X124619047Y-80308333D01*
X124142857Y-80927380D02*
X124142857Y-79927380D01*
X123714285Y-80927380D02*
X123714285Y-80403571D01*
X123761904Y-80308333D01*
X123857142Y-80260714D01*
X124000000Y-80260714D01*
X124095238Y-80308333D01*
X124142857Y-80355952D01*
X123380952Y-80260714D02*
X123000000Y-80260714D01*
X123238095Y-79927380D02*
X123238095Y-80784523D01*
X123190476Y-80879761D01*
X123095238Y-80927380D01*
X123000000Y-80927380D01*
X122714285Y-80879761D02*
X122619047Y-80927380D01*
X122428571Y-80927380D01*
X122333333Y-80879761D01*
X122285714Y-80784523D01*
X122285714Y-80736904D01*
X122333333Y-80641666D01*
X122428571Y-80594047D01*
X122571428Y-80594047D01*
X122666666Y-80546428D01*
X122714285Y-80451190D01*
X122714285Y-80403571D01*
X122666666Y-80308333D01*
X122571428Y-80260714D01*
X122428571Y-80260714D01*
X122333333Y-80308333D01*
X121238095Y-79927380D02*
X120904761Y-80927380D01*
X120571428Y-79927380D01*
X119714285Y-80927380D02*
X120285714Y-80927380D01*
X120000000Y-80927380D02*
X120000000Y-79927380D01*
X120095238Y-80070238D01*
X120190476Y-80165476D01*
X120285714Y-80213095D01*
X132595238Y-82537380D02*
X132595238Y-81537380D01*
X132119047Y-81870714D02*
X132119047Y-82537380D01*
X132119047Y-81965952D02*
X132071428Y-81918333D01*
X131976190Y-81870714D01*
X131833333Y-81870714D01*
X131738095Y-81918333D01*
X131690476Y-82013571D01*
X131690476Y-82537380D01*
X131214285Y-81870714D02*
X131214285Y-82870714D01*
X131214285Y-81918333D02*
X131119047Y-81870714D01*
X130928571Y-81870714D01*
X130833333Y-81918333D01*
X130785714Y-81965952D01*
X130738095Y-82061190D01*
X130738095Y-82346904D01*
X130785714Y-82442142D01*
X130833333Y-82489761D01*
X130928571Y-82537380D01*
X131119047Y-82537380D01*
X131214285Y-82489761D01*
X129880952Y-81870714D02*
X129880952Y-82537380D01*
X130309523Y-81870714D02*
X130309523Y-82394523D01*
X130261904Y-82489761D01*
X130166666Y-82537380D01*
X130023809Y-82537380D01*
X129928571Y-82489761D01*
X129880952Y-82442142D01*
X129547619Y-81870714D02*
X129166666Y-81870714D01*
X129404761Y-81537380D02*
X129404761Y-82394523D01*
X129357142Y-82489761D01*
X129261904Y-82537380D01*
X129166666Y-82537380D01*
X128071428Y-82537380D02*
X128071428Y-81537380D01*
X127738095Y-82251666D01*
X127404761Y-81537380D01*
X127404761Y-82537380D01*
X126928571Y-82537380D02*
X126928571Y-81870714D01*
X126928571Y-81537380D02*
X126976190Y-81585000D01*
X126928571Y-81632619D01*
X126880952Y-81585000D01*
X126928571Y-81537380D01*
X126928571Y-81632619D01*
X126452380Y-81870714D02*
X126452380Y-82537380D01*
X126452380Y-81965952D02*
X126404761Y-81918333D01*
X126309523Y-81870714D01*
X126166666Y-81870714D01*
X126071428Y-81918333D01*
X126023809Y-82013571D01*
X126023809Y-82537380D01*
X125547619Y-82442142D02*
X125500000Y-82489761D01*
X125547619Y-82537380D01*
X125595238Y-82489761D01*
X125547619Y-82442142D01*
X125547619Y-82537380D01*
X125547619Y-81918333D02*
X125500000Y-81965952D01*
X125547619Y-82013571D01*
X125595238Y-81965952D01*
X125547619Y-81918333D01*
X125547619Y-82013571D01*
X124452380Y-82156428D02*
X124404761Y-82108809D01*
X124309523Y-82061190D01*
X124119047Y-82156428D01*
X124023809Y-82108809D01*
X123976190Y-82061190D01*
X123166666Y-81537380D02*
X123357142Y-81537380D01*
X123452380Y-81585000D01*
X123500000Y-81632619D01*
X123595238Y-81775476D01*
X123642857Y-81965952D01*
X123642857Y-82346904D01*
X123595238Y-82442142D01*
X123547619Y-82489761D01*
X123452380Y-82537380D01*
X123261904Y-82537380D01*
X123166666Y-82489761D01*
X123119047Y-82442142D01*
X123071428Y-82346904D01*
X123071428Y-82108809D01*
X123119047Y-82013571D01*
X123166666Y-81965952D01*
X123261904Y-81918333D01*
X123452380Y-81918333D01*
X123547619Y-81965952D01*
X123595238Y-82013571D01*
X123642857Y-82108809D01*
X122452380Y-81537380D02*
X122357142Y-81537380D01*
X122261904Y-81585000D01*
X122214285Y-81632619D01*
X122166666Y-81727857D01*
X122119047Y-81918333D01*
X122119047Y-82156428D01*
X122166666Y-82346904D01*
X122214285Y-82442142D01*
X122261904Y-82489761D01*
X122357142Y-82537380D01*
X122452380Y-82537380D01*
X122547619Y-82489761D01*
X122595238Y-82442142D01*
X122642857Y-82346904D01*
X122690476Y-82156428D01*
X122690476Y-81918333D01*
X122642857Y-81727857D01*
X122595238Y-81632619D01*
X122547619Y-81585000D01*
X122452380Y-81537380D01*
X121785714Y-81870714D02*
X121547619Y-82537380D01*
X121309523Y-81870714D01*
%TO.C,Q1*%
X167735238Y-82335619D02*
X167830476Y-82288000D01*
X167925714Y-82192761D01*
X168068571Y-82049904D01*
X168163809Y-82002285D01*
X168259047Y-82002285D01*
X168211428Y-82240380D02*
X168306666Y-82192761D01*
X168401904Y-82097523D01*
X168449523Y-81907047D01*
X168449523Y-81573714D01*
X168401904Y-81383238D01*
X168306666Y-81288000D01*
X168211428Y-81240380D01*
X168020952Y-81240380D01*
X167925714Y-81288000D01*
X167830476Y-81383238D01*
X167782857Y-81573714D01*
X167782857Y-81907047D01*
X167830476Y-82097523D01*
X167925714Y-82192761D01*
X168020952Y-82240380D01*
X168211428Y-82240380D01*
X166830476Y-82240380D02*
X167401904Y-82240380D01*
X167116190Y-82240380D02*
X167116190Y-81240380D01*
X167211428Y-81383238D01*
X167306666Y-81478476D01*
X167401904Y-81526095D01*
%TO.C,Q2*%
X184499238Y-81827619D02*
X184594476Y-81780000D01*
X184689714Y-81684761D01*
X184832571Y-81541904D01*
X184927809Y-81494285D01*
X185023047Y-81494285D01*
X184975428Y-81732380D02*
X185070666Y-81684761D01*
X185165904Y-81589523D01*
X185213523Y-81399047D01*
X185213523Y-81065714D01*
X185165904Y-80875238D01*
X185070666Y-80780000D01*
X184975428Y-80732380D01*
X184784952Y-80732380D01*
X184689714Y-80780000D01*
X184594476Y-80875238D01*
X184546857Y-81065714D01*
X184546857Y-81399047D01*
X184594476Y-81589523D01*
X184689714Y-81684761D01*
X184784952Y-81732380D01*
X184975428Y-81732380D01*
X184165904Y-80827619D02*
X184118285Y-80780000D01*
X184023047Y-80732380D01*
X183784952Y-80732380D01*
X183689714Y-80780000D01*
X183642095Y-80827619D01*
X183594476Y-80922857D01*
X183594476Y-81018095D01*
X183642095Y-81160952D01*
X184213523Y-81732380D01*
X183594476Y-81732380D01*
%TO.C,R3*%
X189650666Y-81986380D02*
X189984000Y-81510190D01*
X190222095Y-81986380D02*
X190222095Y-80986380D01*
X189841142Y-80986380D01*
X189745904Y-81034000D01*
X189698285Y-81081619D01*
X189650666Y-81176857D01*
X189650666Y-81319714D01*
X189698285Y-81414952D01*
X189745904Y-81462571D01*
X189841142Y-81510190D01*
X190222095Y-81510190D01*
X189317333Y-80986380D02*
X188698285Y-80986380D01*
X189031619Y-81367333D01*
X188888761Y-81367333D01*
X188793523Y-81414952D01*
X188745904Y-81462571D01*
X188698285Y-81557809D01*
X188698285Y-81795904D01*
X188745904Y-81891142D01*
X188793523Y-81938761D01*
X188888761Y-81986380D01*
X189174476Y-81986380D01*
X189269714Y-81938761D01*
X189317333Y-81891142D01*
%TO.C,R1*%
X157900666Y-80368380D02*
X158234000Y-79892190D01*
X158472095Y-80368380D02*
X158472095Y-79368380D01*
X158091142Y-79368380D01*
X157995904Y-79416000D01*
X157948285Y-79463619D01*
X157900666Y-79558857D01*
X157900666Y-79701714D01*
X157948285Y-79796952D01*
X157995904Y-79844571D01*
X158091142Y-79892190D01*
X158472095Y-79892190D01*
X156948285Y-80368380D02*
X157519714Y-80368380D01*
X157234000Y-80368380D02*
X157234000Y-79368380D01*
X157329238Y-79511238D01*
X157424476Y-79606476D01*
X157519714Y-79654095D01*
%TO.C,R2*%
X186856666Y-80876380D02*
X187190000Y-80400190D01*
X187428095Y-80876380D02*
X187428095Y-79876380D01*
X187047142Y-79876380D01*
X186951904Y-79924000D01*
X186904285Y-79971619D01*
X186856666Y-80066857D01*
X186856666Y-80209714D01*
X186904285Y-80304952D01*
X186951904Y-80352571D01*
X187047142Y-80400190D01*
X187428095Y-80400190D01*
X186475714Y-79971619D02*
X186428095Y-79924000D01*
X186332857Y-79876380D01*
X186094761Y-79876380D01*
X185999523Y-79924000D01*
X185951904Y-79971619D01*
X185904285Y-80066857D01*
X185904285Y-80162095D01*
X185951904Y-80304952D01*
X186523333Y-80876380D01*
X185904285Y-80876380D01*
%TO.C,D1*%
X164314095Y-82240380D02*
X164314095Y-81240380D01*
X164076000Y-81240380D01*
X163933142Y-81288000D01*
X163837904Y-81383238D01*
X163790285Y-81478476D01*
X163742666Y-81668952D01*
X163742666Y-81811809D01*
X163790285Y-82002285D01*
X163837904Y-82097523D01*
X163933142Y-82192761D01*
X164076000Y-82240380D01*
X164314095Y-82240380D01*
X162790285Y-82240380D02*
X163361714Y-82240380D01*
X163076000Y-82240380D02*
X163076000Y-81240380D01*
X163171238Y-81383238D01*
X163266476Y-81478476D01*
X163361714Y-81526095D01*
D11*
%TO.C,Q1*%
X167640000Y-77688000D02*
X169315000Y-77688000D01*
X167640000Y-80808000D02*
X166990000Y-80808000D01*
X167640000Y-80808000D02*
X168290000Y-80808000D01*
X167640000Y-77688000D02*
X166990000Y-77688000D01*
%TO.C,Q2*%
X178770000Y-84730000D02*
X180270000Y-84730000D01*
X180270000Y-84730000D02*
X180270000Y-84460000D01*
X180270000Y-78100000D02*
X183100000Y-78100000D01*
X180270000Y-84460000D02*
X181370000Y-84460000D01*
X178770000Y-77830000D02*
X180270000Y-77830000D01*
X180270000Y-77830000D02*
X180270000Y-78100000D01*
%TO.C,R3*%
X187236263Y-82211000D02*
X188683737Y-82211000D01*
X187236263Y-84921000D02*
X188683737Y-84921000D01*
%TO.C,R1*%
X157496742Y-79008500D02*
X157971258Y-79008500D01*
X157496742Y-77963500D02*
X157971258Y-77963500D01*
%TO.C,R2*%
X187722742Y-79516500D02*
X188197258Y-79516500D01*
X187722742Y-78471500D02*
X188197258Y-78471500D01*
%TO.C,D1*%
X163576000Y-80808000D02*
X164226000Y-80808000D01*
X163576000Y-77688000D02*
X162926000Y-77688000D01*
X163576000Y-77688000D02*
X165251000Y-77688000D01*
X163576000Y-80808000D02*
X162926000Y-80808000D01*
%TD*%
M02*
